HIERARCHY
ROOT root
{
	OFFSET 0.000000 0.000000 0.000000
	CHANNELS 6 Xposition Yposition Zposition Zrotation Yrotation Xrotation
	JOINT lhip
	{
		OFFSET 0.058581 -0.082280 -0.017664
		CHANNELS 3 Zrotation Yrotation Xrotation
		JOINT lknee
		{
			OFFSET 0.043451 -0.386469 0.008037
			CHANNELS 3 Zrotation Yrotation Xrotation
			JOINT lankle
			{
				OFFSET -0.014790 -0.426874 -0.037428
				CHANNELS 3 Zrotation Yrotation Xrotation
				JOINT ltoe
				{
					OFFSET 0.041054 -0.060286 0.122042
					CHANNELS 3 Zrotation Yrotation Xrotation
					End Site
					{
						OFFSET 0.000000 0.000000 0.000000
					}
				}
			}
		}
	}
	JOINT rhip
	{
		OFFSET -0.060310 -0.090513 -0.013543
		CHANNELS 3 Zrotation Yrotation Xrotation
		JOINT rknee
		{
			OFFSET -0.043257 -0.383688 -0.004843
			CHANNELS 3 Zrotation Yrotation Xrotation
			JOINT rankle
			{
				OFFSET 0.019056 -0.420046 -0.034562
				CHANNELS 3 Zrotation Yrotation Xrotation
				JOINT rtoe
				{
					OFFSET -0.034840 -0.062106 0.130323
					CHANNELS 3 Zrotation Yrotation Xrotation
					End Site
					{
						OFFSET 0.000000 0.000000 0.000000
					}
				}
			}
		}
	}
	JOINT lowerback
	{
		OFFSET 0.004439 0.124404 -0.038385
		CHANNELS 3 Zrotation Yrotation Xrotation
		JOINT upperback
		{
			OFFSET 0.004488 0.137956 0.026820
			CHANNELS 3 Zrotation Yrotation Xrotation
			JOINT chest
			{
				OFFSET -0.002265 0.056032 0.002855
				CHANNELS 3 Zrotation Yrotation Xrotation
				JOINT lowerneck
				{
					OFFSET -0.013390 0.211636 -0.033468
					CHANNELS 3 Zrotation Yrotation Xrotation
					JOINT upperneck
					{
						OFFSET 0.010113 0.088937 0.050410
						CHANNELS 3 Zrotation Yrotation Xrotation
						End Site
						{
							OFFSET 0.000000 0.000000 0.000000
						}
					}
				}
				JOINT lclavicle
				{
					OFFSET 0.071702 0.114000 -0.018898
					CHANNELS 3 Zrotation Yrotation Xrotation
					JOINT lshoulder
					{
						OFFSET 0.122921 0.045205 -0.019046
						CHANNELS 3 Zrotation Yrotation Xrotation
						JOINT lelbow
						{
							OFFSET 0.255332 -0.015649 -0.022946
							CHANNELS 3 Zrotation Yrotation Xrotation
							JOINT lwrist
							{
								OFFSET 0.265709 0.012698 -0.007375
								CHANNELS 3 Zrotation Yrotation Xrotation
								End Site
								{
									OFFSET 0.000000 0.000000 0.000000
								}
							}
						}
					}
				}
				JOINT rclavicle
				{
					OFFSET -0.082954 0.112472 -0.023707
					CHANNELS 3 Zrotation Yrotation Xrotation
					JOINT rshoulder
					{
						OFFSET -0.113228 0.046853 -0.008472
						CHANNELS 3 Zrotation Yrotation Xrotation
						JOINT relbow
						{
							OFFSET -0.260127 -0.014369 -0.031269
							CHANNELS 3 Zrotation Yrotation Xrotation
							JOINT rwrist
							{
								OFFSET -0.269108 0.006794 -0.006027
								CHANNELS 3 Zrotation Yrotation Xrotation
								End Site
								{
									OFFSET 0.000000 0.000000 0.000000
								}
							}
						}
					}
				}
			}
		}
	}
}
MOTION
Frames: 5
Frame Time: 0.033333
-0.751534 0.914490 0.854479 59.188700 8.071881 115.842112 22.450419 18.503174 -52.383963 -3.139458 9.622098 54.023668 -1.057724 9.885178 -32.304609 0.000000 -0.000000 0.000000 -1.060966 11.046794 -63.384799 4.317106 -10.946836 43.622399 -1.917835 -0.146158 -26.321386 0.000000 -0.000000 0.000000 0.973826 -6.725751 40.472659 3.819986 2.834758 -11.855700 3.284989 0.352398 -5.213010 -0.468055 14.461801 1.711216 -0.041558 -8.075462 -12.450539 -18.545112 12.273583 -5.196304 -66.023619 0.767610 21.553896 5.565610 -49.607348 16.713999 22.939688 -38.620779 -0.139479 18.284407 -7.368513 1.355779 56.089239 -3.898601 8.653525 48.326015 69.355529 69.923066 -21.845301 22.169901 -10.524811 
-0.751123 0.913854 0.854912 58.948591 8.098095 115.965566 22.456584 18.758354 -52.199482 -3.035954 9.886814 53.824208 -1.124900 9.569335 -32.223169 0.000000 -0.000000 0.000000 -0.966704 11.067807 -63.307826 4.295873 -10.835030 43.318028 -1.832924 0.081619 -26.123266 0.000000 -0.000000 0.000000 0.783961 -6.547847 41.018224 3.727287 2.923998 -12.198343 3.390874 0.386650 -4.832109 -0.593716 14.239644 2.870897 0.060366 -8.114672 -13.583710 -18.761595 12.318819 -5.585862 -65.927109 0.916370 21.803384 5.486055 -49.862471 16.878677 24.208902 -38.656636 -0.555712 18.193658 -7.341187 0.973922 55.952536 -3.945247 8.815290 49.083771 69.292742 70.666326 -22.404972 22.111611 -10.556359 
-0.752076 0.914112 0.854319 58.882168 8.038622 116.410198 22.359219 18.818903 -52.672411 -3.073288 9.989937 53.669034 -1.218407 9.538547 -32.099166 0.000000 -0.000000 0.000000 -1.158070 10.935674 -63.802338 4.401911 -10.909509 43.031294 -1.755667 0.211513 -25.608790 0.000000 -0.000000 0.000000 0.658618 -6.546131 41.221139 3.629982 2.985654 -12.609483 3.395143 0.301677 -4.280804 -0.565844 14.307976 2.693331 0.175450 -8.139940 -14.348560 -18.455951 12.379558 -5.851072 -66.040551 0.963759 22.045221 5.394699 -50.196688 17.457799 25.266425 -38.725169 -1.157912 17.989770 -7.368516 0.881988 55.996154 -3.602243 8.953416 49.545390 69.191663 70.894206 -23.326540 22.037483 -11.241864 
-0.751332 0.913641 0.854295 58.481929 8.083159 116.674634 22.172260 19.209222 -52.645466 -2.818412 10.204668 53.480495 -1.229159 9.291024 -32.247161 0.000000 -0.000000 0.000000 -1.082069 11.156742 -64.031984 4.323683 -10.685564 42.958979 -1.762579 0.327288 -25.693329 0.000000 -0.000000 0.000000 0.530473 -6.298513 41.229729 3.546512 3.026115 -12.157459 3.408170 0.285456 -4.665425 -0.501558 14.520878 3.232806 0.244086 -8.222254 -15.221550 -19.074790 12.378053 -6.230556 -65.427425 1.151495 21.993190 5.510069 -50.279293 16.998460 24.454749 -38.716599 -0.323517 18.317020 -7.020067 1.062894 55.532789 -3.685439 8.980663 49.325394 69.668418 70.078238 -23.131797 22.028719 -11.639898 
-0.751042 0.913167 0.854700 59.052969 8.381863 116.633641 22.500386 19.110399 -52.757992 -2.794927 9.913393 53.523205 -1.415601 9.010525 -32.013340 0.000000 -0.000000 0.000000 -0.621793 10.883294 -63.594300 4.437504 -10.818918 42.547921 -1.744891 0.291567 -25.782246 0.000000 -0.000000 0.000000 1.006026 -6.712833 41.984037 3.592440 3.096261 -12.731018 3.489291 0.190222 -4.287254 -0.668702 14.688894 3.416260 0.373336 -8.371235 -15.578372 -19.078412 12.205437 -6.146869 -65.560626 1.194225 21.828089 5.599760 -50.408592 16.634309 24.822094 -39.046799 -0.469083 18.134030 -6.906650 0.913539 55.389049 -3.886428 8.710048 50.460635 69.688255 71.053240 -23.183786 22.024339 -11.771239 
